<svg xmlns="http://www.w3.org/2000/svg" width="256" height="286" viewBox="0 0 256 286" fill="none">
<path d="M 256,0.41 H 0 V 285.72 H 256 V 0.41 Z" fill="#29B0D5"/>
<path d="M 128.03,11.16 L 246.62,143.91 L 231.21,191.52 L 201.77,228.82 L 170.93,253.66 L 127.77,273.23 L 85.12,253.29 L 53.64,228.7 L 27.19,195.79 L 11.78,142.49 L 27.19,47.81 L 73.96,34.29 L 128.03,11.16 Z" stroke="white" stroke-width="2" stroke-miterlimit="10"/>
<path d="M 127.77,13.18 L 182.61,33.91 L 227.09,47.81 L 238.78,98.56 L 244.95,144.71 L 229.91,191.96 L 201.77,228.82 L 171.19,253.1 L 127.77,272.53 L 85.31,253.1 L 53.48,228.26 L 27.61,195.51 L 12.61,142.21 L 28.59,48.11 L 74.22,34.81 L 127.77,13.18 Z" stroke="white" stroke-width="2" stroke-miterlimit="10"/>
<path d="M 127.77,13.18 L 182.22,61.03 L 238.78,98.56 L 243.89,144.94 L 229.91,191.96 L 185.43,178.44 L 227.09,119.15 L 202.66,98.92 L 181.44,60.61 L 182.61,33.91 L 127.77,13.18 Z" stroke="white" stroke-width="2" stroke-miterlimit="10"/>
<path d="M 127.77,13.18 L 79.52,60.2 L 74.22,34.29 L 127.77,13.18 Z" stroke="white" stroke-width="2" stroke-miterlimit="10"/>
<path d="M 28.59,48.11 L 78.35,60.61 L 39.94,81.34 L 20.37,98.56 L 12.61,142.21 L 39.11,155.33 L 50.41,100.08 L 39.94,81.34 L 28.59,48.11 Z" stroke="white" stroke-width="2" stroke-miterlimit="10"/>
<path d="M 27.61,195.51 L 39.94,155.33 L 25.59,125.69 L 19.42,101.25 L 28.59,48.11" stroke="white" stroke-width="2" stroke-miterlimit="10"/>
<path d="M 53.48,228.26 L 83.69,229.5 L 127.77,272.53 L 85.31,253.1 L 84.11,229.5 L 73.19,194.31 L 39.94,155.33 L 16.72,143.91" stroke="white" stroke-width="2" stroke-miterlimit="10"/>
<path d="M 183.41,220.92 L 171.19,253.1" stroke="white" stroke-width="2" stroke-miterlimit="10"/>
<path d="M 201.77,228.82 L 183.41,220.92 L 148.16,222.12" stroke="white" stroke-width="2" stroke-miterlimit="10"/>
<path d="M 229.91,191.96 L 185.43,218.46 L 185.01,178.44 L 243.89,144.94" stroke="white" stroke-width="2" stroke-miterlimit="10"/>
<path d="M 238.78,98.56 L 220.84,122.19 L 229.91,191.96" stroke="white" stroke-width="2" stroke-miterlimit="10"/>
<path d="M 227.09,47.81 L 182.61,59.39 L 209.91,81.34 L 238.78,98.56" stroke="white" stroke-width="2" stroke-miterlimit="10"/>
<path d="M 144.31,47.39 L 182.61,33.91 L 181.44,60.61 L 202.66,98.92 L 214.25,136.04 L 185.43,178.44 L 153.18,199.17" stroke="white" stroke-width="2" stroke-miterlimit="10"/>
<path d="M 79.52,60.2 L 100.25,75.61" stroke="white" stroke-width="2" stroke-miterlimit="10"/>
<path d="M 28.59,48.11 L 74.22,34.81" stroke="white" stroke-width="2" stroke-miterlimit="10"/>
<path d="M 55.22,100.08 L 83.69,116.72" stroke="white" stroke-width="2" stroke-miterlimit="10"/>
<path d="M 39.94,154.53 L 61.16,148.76" stroke="white" stroke-width="2" stroke-miterlimit="10"/>
<path d="M 27.61,195.93 L 73.19,194.31 L 106.04,213.47" stroke="white" stroke-width="2" stroke-miterlimit="10"/>
<path d="M 83.69,229.5 L 108.53,226.02" stroke="white" stroke-width="2" stroke-miterlimit="10"/>
<path d="M 55.22,97.76 L 93.52,92.48" stroke="white" stroke-width="2" stroke-miterlimit="10"/>
<path d="M 79.52,60.2 L 55.22,97.76" stroke="white" stroke-width="2" stroke-miterlimit="10"/>
<path d="M 127.92,7.28 C 123.41,7.28 121.68,10.96 121.68,13.18 C 121.68,14.83 122.02,16.41 123.02,17.56 C 124.21,18.94 126.06,19.28 127.92,19.28 C 132.52,19.28 134.32,15.69 134.32,13.26 C 134.32,10.31 132.17,7.28 127.92,7.28 Z" fill="white"/>
<path d="M 182.11,27.92 C 177.16,27.92 176.19,31.93 176.19,33.82 C 176.19,36.83 178.13,39.97 182.31,39.97 C 186.86,39.97 188.17,36.11 188.17,34.21 C 188.17,31.93 186.72,27.92 182.11,27.92 Z" fill="white"/>
<path d="M 227.09,41.71 C 222.06,41.71 221.16,46.09 221.16,47.91 C 221.16,51.22 223.41,54.54 227.31,54.54 C 232.11,54.54 233.66,50.44 233.66,48.11 C 233.66,45.46 231.75,41.71 227.09,41.71 Z" fill="white"/>
<path d="M 181.11,55.41 C 176.19,55.41 174.96,59.26 174.96,61.54 C 174.96,64.76 177.22,67.74 181.11,67.74 C 185.66,67.74 187.28,63.98 187.28,61.62 C 187.28,59.01 185.51,55.41 181.11,55.41 Z" fill="white"/>
<path d="M 202.72,93.01 C 197.92,93.01 196.31,96.81 196.31,99.27 C 196.31,102.63 198.81,105.71 202.56,105.71 C 207.28,105.71 208.86,101.64 208.86,99.21 C 208.86,96.56 207.06,93.01 202.72,93.01 Z" fill="white"/>
<path d="M 239.81,93.21 C 234.91,93.21 233.56,97.27 233.56,99.53 C 233.56,102.78 235.89,105.91 239.71,105.91 C 244.49,105.91 245.97,101.83 245.97,99.4 C 245.97,96.75 244.17,93.21 239.81,93.21 Z" fill="white"/>
<path d="M 245.17,139.21 C 240.16,139.21 238.78,143.31 238.78,145.63 C 238.78,148.95 241.11,152.06 244.93,152.06 C 249.71,152.06 251.19,147.96 251.19,145.53 C 251.19,142.88 249.46,139.21 245.17,139.21 Z" fill="white"/>
<path d="M 230.41,185.53 C 225.61,185.53 224.22,189.49 224.22,191.86 C 224.22,195.15 226.68,198.23 230.47,198.23 C 235.21,198.23 236.75,194.21 236.75,191.78 C 236.75,189.13 234.87,185.53 230.41,185.53 Z" fill="white"/>
<path d="M 185.43,171.63 C 180.63,171.63 179.02,175.53 179.02,177.96 C 179.02,181.28 181.52,184.39 185.31,184.39 C 190.06,184.39 191.63,180.32 191.63,177.89 C 191.63,175.24 189.83,171.63 185.43,171.63 Z" fill="white"/>
<path d="M 183.92,213.47 C 178.96,213.47 177.42,217.43 177.42,219.8 C 177.42,223.11 179.97,226.22 183.81,226.22 C 188.59,226.22 190.12,222.12 190.12,219.69 C 190.12,217.04 188.28,213.47 183.92,213.47 Z" fill="white"/>
<path d="M 171.19,247.33 C 166.23,247.33 165.06,251.26 165.06,253.58 C 165.06,256.87 167.51,259.95 171.36,259.95 C 176.1,259.95 177.68,255.92 177.68,253.49 C 177.68,250.84 175.78,247.33 171.19,247.33 Z" fill="white"/>
<path d="M 127.77,267.3 C 122.81,267.3 121.43,271.26 121.43,273.62 C 121.43,276.91 123.91,279.72 127.71,279.72 C 132.46,279.72 134.03,275.81 134.03,273.38 C 134.03,270.73 132.19,267.3 127.77,267.3 Z" fill="white"/>
<path d="M 84.92,247.19 C 80.02,247.19 78.64,251.07 78.64,253.43 C 78.64,256.72 81.09,259.67 84.94,259.67 C 89.68,259.67 91.26,255.71 91.26,253.28 C 91.26,250.63 89.32,247.19 84.92,247.19 Z" fill="white"/>
<path d="M 83.72,223.86 C 78.82,223.86 77.44,227.78 77.44,230.11 C 77.44,233.42 79.89,236.5 83.74,236.5 C 88.48,236.5 90.06,232.47 90.06,230.04 C 90.06,227.39 88.12,223.86 83.72,223.86 Z" fill="white"/>
<path d="M 53.76,222.63 C 48.81,222.63 47.42,226.59 47.42,228.95 C 47.42,232.24 49.88,235.19 53.72,235.19 C 58.47,235.19 60.04,231.16 60.04,228.73 C 60.04,226.08 58.14,222.63 53.76,222.63 Z" fill="white"/>
<path d="M 27.92,189.63 C 23.02,189.63 21.64,193.59 21.64,195.91 C 21.64,199.23 24.09,202.18 27.94,202.18 C 32.68,202.18 34.26,198.22 34.26,195.79 C 34.26,193.14 32.32,189.63 27.92,189.63 Z" fill="white"/>
<path d="M 11.69,137.09 C 7.04,137.09 5.78,140.97 5.78,143.1 C 5.78,146.26 8.11,149.24 11.78,149.24 C 16.33,149.24 17.81,145.38 17.81,143.02 C 17.81,140.47 15.91,137.09 11.69,137.09 Z" fill="white"/>
<path d="M 17.92,93.12 C 13.02,93.12 11.63,97.04 11.63,99.36 C 11.63,102.68 14.09,105.66 17.93,105.66 C 22.68,105.66 24.25,101.7 24.25,99.27 C 24.25,96.62 22.31,93.12 17.92,93.12 Z" fill="white"/>
<path d="M 29.34,41.8 C 24.69,41.8 23.43,45.68 23.43,47.81 C 23.43,50.97 25.76,53.95 29.43,53.95 C 33.98,53.95 35.46,50.09 35.46,47.73 C 35.46,45.18 33.62,41.8 29.34,41.8 Z" fill="white"/>
<path d="M 73.71,27.68 C 68.81,27.68 67.71,31.61 67.71,33.71 C 67.71,36.87 69.97,39.85 73.71,39.85 C 78.45,39.85 79.78,35.89 79.78,33.61 C 79.78,31.18 77.98,27.68 73.71,27.68 Z" fill="white"/>
<path d="M 79.13,55.41 C 74.23,55.41 73.06,59.26 73.06,61.54 C 73.06,64.76 75.46,67.74 79.25,67.74 C 84.05,67.74 85.58,63.88 85.58,61.45 C 85.58,58.8 83.74,55.41 79.13,55.41 Z" fill="white"/>
<path d="M 53.76,93.21 C 49.11,93.21 47.85,97.09 47.85,99.21 C 47.85,102.38 50.18,105.36 53.85,105.36 C 58.4,105.36 59.88,101.5 59.88,99.14 C 59.88,96.59 58.04,93.21 53.76,93.21 Z" fill="white"/>
<path d="M 39.94,148.34 C 35.04,148.34 33.87,152.26 33.87,154.58 C 33.87,157.9 36.27,160.88 40.06,160.88 C 44.81,160.88 46.38,156.92 46.38,154.49 C 46.38,151.84 44.44,148.34 39.94,148.34 Z" fill="white"/>
<path d="M 73.41,188.73 C 68.81,188.73 67.33,192.69 67.33,195.06 C 67.33,198.37 69.78,201.45 73.63,201.45 C 78.37,201.45 79.95,197.42 79.95,194.99 C 79.95,192.34 78.05,188.73 73.41,188.73 Z" fill="white"/>
<path opacity="0.5" d="M 159.77,76.03 L 176.81,61.03" stroke="url(#paint0_linear_1_437)" stroke-width="4" stroke-miterlimit="10" stroke-linecap="round"/>
<path opacity="0.5" d="M 163.92,113.15 L 200.22,102.07" stroke="url(#paint1_linear_1_437)" stroke-width="4" stroke-miterlimit="10" stroke-linecap="round"/>
<path opacity="0.5" d="M 154.85,150.68 L 183.72,175.52" stroke="url(#paint2_linear_1_437)" stroke-width="4" stroke-miterlimit="10" stroke-linecap="round"/>
<path opacity="0.5" d="M 73.96,190.76 L 151.12,81.34" stroke="url(#paint3_linear_1_437)" stroke-width="4" stroke-miterlimit="10" stroke-linecap="round"/>
<path opacity="0.5" d="M 106.46,153.75 L 152.71,82.54" stroke="url(#paint4_linear_1_437)" stroke-width="4" stroke-miterlimit="10" stroke-linecap="round"/>
<path d="M 127.71,37.27 C 118.87,37.27 115.16,43.74 115.16,50.09 V 52.97 C 113.93,53.91 113.72,57.02 114.61,59.62 C 115.28,61.71 116.61,62.31 117.33,62.78 L 119.19,67.45 C 119.57,74.73 113.16,75.96 106.72,77.81 C 100.25,79.67 98.91,85.79 97.97,90.46 C 97.03,95.13 93.28,107.71 91.13,111.46 C 88.97,115.21 88.35,114.59 85.85,120.71 C 83.35,126.83 78.96,134.73 77.1,136.28 C 75.24,137.83 73.38,137.54 70.27,139.97 C 67.16,142.4 64.66,143.63 64.96,145.49 C 65.26,147.35 68.97,145.19 69.91,145.19 C 70.85,145.19 67.45,151.92 66.51,153.78 C 65.57,155.64 67.73,158.43 69.28,159.37 C 70.83,160.31 75.81,158.76 76.75,158.46 C 77.69,158.16 84.73,146.22 85.37,142.47 C 85.85,139.61 95.11,128.47 98.86,122.96 C 101.31,119.26 105.76,108.28 108.87,102.16 C 109.81,108.28 111.67,113.95 111.05,118.62 C 109.5,130.26 105.44,146.28 105.44,155.41 C 105.44,163.01 108.55,181.28 108.55,188.26 C 108.55,195.24 106.72,199.62 107.95,207.52 C 109.18,215.42 113.24,228.82 113.24,235.19 C 113.24,240.15 110.43,244.53 110.73,247.64 C 111.03,250.75 118.01,252.01 121.12,252.01 C 124.23,252.01 125.46,250.75 125.16,246.08 C 124.86,241.41 123.63,228.26 123.63,224.16 C 123.63,220.06 124.86,211.86 124.23,205.48 C 123.61,199.11 122.67,197.88 123.93,193.19 C 125.16,188.52 125.46,185.11 125.46,181.66 C 125.46,178.21 127.32,168.17 127.62,151.53 C 127.92,168.17 129.78,178.21 129.78,181.66 C 129.78,185.11 130.08,188.52 131.31,193.19 C 132.54,197.86 131.6,199.11 130.98,205.48 C 130.36,211.86 131.59,220.06 131.59,224.16 C 131.59,228.26 130.36,241.41 130.06,246.08 C 129.76,250.75 130.99,252.01 134.1,252.01 C 137.21,252.01 144.19,250.75 144.49,247.64 C 144.79,244.53 141.98,240.15 141.98,235.19 C 141.98,228.82 146.63,215.42 147.86,207.52 C 149.09,199.62 147.23,195.24 147.23,188.26 C 147.23,181.28 150.34,166.16 150.34,157.32 C 150.34,149.12 147.23,139.08 145.07,127.14 C 144.31,122.96 146.63,113.61 147.86,100.16 C 151.61,104.83 155.36,115.17 158.47,120.45 C 161.58,125.73 167.71,133.01 169.26,137.68 C 170.81,142.35 176.59,155.19 178.45,156.74 C 180.31,158.29 183.42,158.29 184.36,157.66 C 185.3,157.04 186.24,157.34 187.47,156.11 C 188.7,154.88 188.7,152.72 187.76,151.17 C 186.82,149.62 184.36,146.21 184.66,145.27 C 184.96,144.33 187.42,145.59 189.28,144.65 C 191.14,143.71 188.69,140.6 184.94,138.44 C 181.19,136.28 178.08,135.66 176.53,134.11 C 174.98,132.56 169.31,119.11 166.5,112.73 C 163.69,106.36 160.24,97.52 158.38,88.07 C 157.15,81.7 155.29,78.25 148.25,76.09 C 142.12,74.08 136.05,73.46 135.75,67.09 L 137.91,61.42 C 139.77,60.48 140.71,57.37 140.41,55.21 C 140.26,54.08 139.61,53.11 138.99,52.67 V 47.39 C 138.99,42.11 134.32,37.27 127.71,37.27 Z" fill="white" stroke="url(#paint5_linear_1_437)" stroke-width="3" stroke-miterlimit="10" stroke-linecap="round" stroke-linejoin="round"/>
<defs>
<linearGradient id="paint0_linear_1_437" x1="158.924" y1="68.5287" x2="177.656" y2="68.5287" gradientUnits="userSpaceOnUse">
<stop stop-color="#E6FF94"/>
<stop offset="1" stop-color="#F7FFD0" stop-opacity="0.45"/>
</linearGradient>
<linearGradient id="paint1_linear_1_437" x1="163.919" y1="107.611" x2="200.223" y2="107.611" gradientUnits="userSpaceOnUse">
<stop stop-color="#FF8A80"/>
<stop offset="1" stop-color="#FFBDBD" stop-opacity="0.45"/>
</linearGradient>
<linearGradient id="paint2_linear_1_437" x1="154.846" y1="163.099" x2="183.716" y2="163.099" gradientUnits="userSpaceOnUse">
<stop stop-color="#FF8A80"/>
<stop offset="1" stop-color="#FFBDBD" stop-opacity="0.45"/>
</linearGradient>
<linearGradient id="paint3_linear_1_437" x1="73.9609" y1="136.048" x2="151.121" y2="136.048" gradientUnits="userSpaceOnUse">
<stop stop-color="#E6FF94"/>
<stop offset="1" stop-color="#F7FFD0" stop-opacity="0.45"/>
</linearGradient>
<linearGradient id="paint4_linear_1_437" x1="106.461" y1="118.145" x2="152.709" y2="118.145" gradientUnits="userSpaceOnUse">
<stop stop-color="#74FF8E"/>
<stop offset="1" stop-color="#F7FFD0" stop-opacity="0.45"/>
</linearGradient>
<linearGradient id="paint5_linear_1_437" x1="127.248" y1="35.7686" x2="127.248" y2="253.509" gradientUnits="userSpaceOnUse">
<stop stop-color="#1B5877"/>
<stop offset="1" stop-color="#1B698A"/>
</linearGradient>
</defs>
</svg>